<svg xmlns="http://www.w3.org/2000/svg" viewBox="0 0 1140 340">
  <title>Code as product — 3 zone: Umano definisce test/spec, Agente scrive codice, Test runner verifica con loop di fail</title>
  <defs>
    <style>
      @import url('https://fonts.googleapis.com/css2?family=Poppins:wght@400;500;600&amp;family=JetBrains+Mono:wght@400;500&amp;display=swap');
      text { font-family: 'Poppins', sans-serif; }
      .mono { font-family: 'JetBrains Mono', monospace; }
      .zone-num { font-size: 10px; fill: #838383; font-weight: 600; letter-spacing: 0.12em; }
      .box-label { font-size: 12px; fill: #1a1a1a; font-weight: 600; }
      .box-sub { font-size: 9.5px; fill: #838383; }
      .zone-caption { font-size: 11px; fill: #1a1a1a; font-weight: 600; }
      .zone-sub { font-size: 10px; fill: #838383; font-style: italic; }
      .arrow-label { font-size: 10px; fill: #838383; font-style: italic; }
      .pass-label { font-size: 11px; fill: #1ab197; font-weight: 600; letter-spacing: 0.05em; }
      .fail-label { font-size: 11px; fill: #a1245a; font-weight: 600; font-style: italic; }
    </style>
    <marker id="cp-arr" markerWidth="7" markerHeight="5" refX="7" refY="2.5" orient="auto">
      <path d="M0,0 L7,2.5 L0,5" fill="#1a1a1a"/>
    </marker>
    <marker id="cp-arr-fail" markerWidth="8" markerHeight="6" refX="8" refY="3" orient="auto">
      <path d="M0,0 L8,3 L0,6" fill="#a1245a"/>
    </marker>
    <marker id="cp-arr-pass" markerWidth="8" markerHeight="6" refX="8" refY="3" orient="auto">
      <path d="M0,0 L8,3 L0,6" fill="#1ab197"/>
    </marker>
  </defs>

  <rect width="1140" height="340" fill="#ffffff"/>

  <!-- =============== ZONA 1 — UMANO =============== -->
  <g>
    <text x="170" y="30" text-anchor="middle" class="zone-num">ZONA 1</text>

    <!-- Person icon -->
    <circle cx="90" cy="95" r="16" fill="none" stroke="#1a1a1a" stroke-width="1.6"/>
    <path d="M62 155 Q62 120 90 120 Q118 120 118 155" fill="none" stroke="#1a1a1a" stroke-width="1.6"/>

    <!-- Arrow to Test/spec -->
    <line x1="128" y1="125" x2="168" y2="125" stroke="#1a1a1a" stroke-width="1.4" marker-end="url(#cp-arr)"/>

    <!-- Test / spec rect -->
    <rect x="170" y="85" width="130" height="80" rx="6" fill="#fafafa" stroke="#1a1a1a" stroke-width="1.4"/>
    <text x="235" y="112" text-anchor="middle" class="box-label">Test / spec</text>
    <line x1="186" y1="126" x2="284" y2="126" stroke="#c9c9c9" stroke-width="1"/>
    <line x1="186" y1="136" x2="275" y2="136" stroke="#c9c9c9" stroke-width="1"/>
    <line x1="186" y1="146" x2="284" y2="146" stroke="#c9c9c9" stroke-width="1"/>
    <line x1="186" y1="156" x2="260" y2="156" stroke="#c9c9c9" stroke-width="1"/>

    <!-- Labels under zone -->
    <text x="170" y="210" text-anchor="middle" class="zone-caption">Umano</text>
    <text x="170" y="228" text-anchor="middle" class="zone-sub">definisce il contratto</text>
  </g>

  <!-- Separator -->
  <line x1="340" y1="60" x2="340" y2="250" stroke="#e0e0e0" stroke-width="0.8" stroke-dasharray="3,4"/>

  <!-- =============== ZONA 2 — AGENTE =============== -->
  <g>
    <text x="530" y="30" text-anchor="middle" class="zone-num">ZONA 2</text>

    <!-- Test arriving from zone 1 -->
    <line x1="310" y1="125" x2="380" y2="125" stroke="#1a1a1a" stroke-width="1.2" stroke-dasharray="4,3" marker-end="url(#cp-arr)"/>

    <!-- Agent icon (circle with A) -->
    <circle cx="455" cy="125" r="24" fill="none" stroke="#1a1a1a" stroke-width="1.8" id="agent-circle"/>
    <text x="455" y="130" text-anchor="middle" font-size="14" font-weight="600" fill="#1a1a1a">A</text>

    <!-- Arrow agent -> codice -->
    <line x1="481" y1="125" x2="525" y2="125" stroke="#1a1a1a" stroke-width="1.4" marker-end="url(#cp-arr)"/>

    <!-- Codice rect -->
    <rect x="528" y="85" width="130" height="80" rx="6" fill="#fafafa" stroke="#1a1a1a" stroke-width="1.4"/>
    <text x="593" y="112" text-anchor="middle" class="box-label">Codice</text>
    <line x1="544" y1="126" x2="640" y2="126" stroke="#c9c9c9" stroke-width="1"/>
    <line x1="544" y1="136" x2="628" y2="136" stroke="#c9c9c9" stroke-width="1"/>
    <line x1="544" y1="146" x2="640" y2="146" stroke="#c9c9c9" stroke-width="1"/>
    <line x1="544" y1="156" x2="620" y2="156" stroke="#c9c9c9" stroke-width="1"/>

    <!-- Labels under zone -->
    <text x="530" y="210" text-anchor="middle" class="zone-caption">Agente</text>
    <text x="530" y="228" text-anchor="middle" class="zone-sub">scrive per soddisfare il contratto</text>
  </g>

  <!-- Separator -->
  <line x1="700" y1="60" x2="700" y2="250" stroke="#e0e0e0" stroke-width="0.8" stroke-dasharray="3,4"/>

  <!-- =============== ZONA 3 — TEST RUNNER =============== -->
  <g>
    <text x="900" y="30" text-anchor="middle" class="zone-num">ZONA 3</text>

    <!-- Input arrows to runner -->
    <!-- from Test/spec (zone1) via curve over top -->
    <path d="M235 85 Q235 50 870 50 Q900 50 900 75" fill="none" stroke="#1a1a1a" stroke-width="1.1" stroke-dasharray="4,3" marker-end="url(#cp-arr)"/>
    <text x="570" y="42" text-anchor="middle" class="arrow-label">test</text>

    <!-- from Codice (zone 2) -->
    <line x1="660" y1="125" x2="838" y2="125" stroke="#1a1a1a" stroke-width="1.4" marker-end="url(#cp-arr)"/>
    <text x="750" y="118" text-anchor="middle" class="arrow-label">codice</text>

    <!-- Test runner box -->
    <rect x="840" y="90" width="140" height="70" rx="6" fill="#fafafa" stroke="#1a1a1a" stroke-width="1.5"/>
    <text x="910" y="122" text-anchor="middle" class="box-label">Test runner</text>
    <text x="910" y="140" text-anchor="middle" class="box-sub">pass / fail</text>

    <!-- PASS arrow out right -->
    <line x1="982" y1="110" x2="1100" y2="110" stroke="#1ab197" stroke-width="1.8" marker-end="url(#cp-arr-pass)"/>
    <text x="1040" y="102" text-anchor="middle" class="pass-label">pass → done</text>

    <!-- Labels under zone -->
    <text x="910" y="210" text-anchor="middle" class="zone-caption">Test runner</text>
    <text x="910" y="228" text-anchor="middle" class="zone-sub">verifica deterministica</text>
  </g>

  <!-- =============== FAIL LOOP back to Agent (zone 2) =============== -->
  <path d="M 905 160 C 905 320, 455 320, 455 155" fill="none" stroke="#a1245a" stroke-width="2" marker-end="url(#cp-arr-fail)"/>
  <text x="680" y="312" text-anchor="middle" class="fail-label">fail → l'agente itera</text>
</svg>
