<svg xmlns="http://www.w3.org/2000/svg" viewBox="0 0 500 500" font-family="'Segoe UI', 'Helvetica Neue', Arial, sans-serif">

  <!-- ============================================ -->
  <!-- TOP SECTION: Raw Data (wide area, many icons) -->
  <!-- ============================================ -->

  <!-- Side label -->
  <text x="488" y="80" fill="#888888" font-size="11" text-anchor="end" font-style="italic">Trilioni di token</text>

  <!-- Row 1 of tiny data icons -->
  <!-- Documents (small rectangles with lines) -->
  <rect x="30" y="18" width="12" height="16" rx="1" fill="#ebebeb"/>
  <line x1="33" y1="23" x2="39" y2="23" stroke="#dddddd" stroke-width="1"/>
  <line x1="33" y1="26" x2="39" y2="26" stroke="#dddddd" stroke-width="1"/>
  <line x1="33" y1="29" x2="38" y2="29" stroke="#dddddd" stroke-width="1"/>

  <rect x="50" y="20" width="10" height="14" rx="1" fill="#e5e5e5"/>
  <line x1="52" y1="24" x2="58" y2="24" stroke="#dddddd" stroke-width="1"/>
  <line x1="52" y1="27" x2="57" y2="27" stroke="#dddddd" stroke-width="1"/>

  <!-- Book shapes -->
  <rect x="68" y="19" width="14" height="15" rx="1" fill="#ebebeb"/>
  <line x1="75" y1="19" x2="75" y2="34" stroke="#dddddd" stroke-width="1.5"/>

  <rect x="90" y="22" width="11" height="12" rx="1" fill="#e5e5e5"/>
  <line x1="95.5" y1="22" x2="95.5" y2="34" stroke="#dddddd" stroke-width="1"/>

  <!-- Code snippet (rectangle with angle brackets) -->
  <rect x="108" y="18" width="16" height="14" rx="1" fill="#ebebeb"/>
  <text x="116" y="28" fill="#f0f0f0" font-size="7" text-anchor="middle">&lt;/&gt;</text>

  <!-- Web page -->
  <rect x="132" y="20" width="14" height="14" rx="1" fill="#e5e5e5"/>
  <rect x="133" y="21" width="12" height="3" rx="0" fill="#ebebeb"/>
  <line x1="134" y1="28" x2="144" y2="28" stroke="#dddddd" stroke-width="0.8"/>
  <line x1="134" y1="30" x2="142" y2="30" stroke="#dddddd" stroke-width="0.8"/>

  <rect x="154" y="18" width="12" height="16" rx="1" fill="#ebebeb"/>
  <line x1="157" y1="23" x2="163" y2="23" stroke="#dddddd" stroke-width="1"/>
  <line x1="157" y1="26" x2="163" y2="26" stroke="#dddddd" stroke-width="1"/>

  <!-- Circle icons (data points) -->
  <circle cx="178" cy="27" r="6" fill="#e5e5e5"/>
  <circle cx="196" cy="25" r="5" fill="#ebebeb"/>

  <rect x="208" y="19" width="14" height="15" rx="1" fill="#e5e5e5"/>
  <line x1="215" y1="19" x2="215" y2="34" stroke="#dddddd" stroke-width="1"/>

  <rect x="230" y="20" width="10" height="14" rx="1" fill="#ebebeb"/>
  <line x1="232" y1="24" x2="238" y2="24" stroke="#dddddd" stroke-width="1"/>
  <line x1="232" y1="27" x2="237" y2="27" stroke="#dddddd" stroke-width="1"/>

  <rect x="248" y="18" width="16" height="14" rx="1" fill="#e5e5e5"/>
  <text x="256" y="28" fill="#ebebeb" font-size="7" text-anchor="middle">{}</text>

  <rect x="272" y="21" width="12" height="13" rx="1" fill="#ebebeb"/>
  <circle cx="296" cy="27" r="6" fill="#e5e5e5"/>

  <rect x="310" y="18" width="14" height="16" rx="1" fill="#e5e5e5"/>
  <rect x="311" y="19" width="12" height="3" fill="#ebebeb"/>
  <line x1="312" y1="26" x2="322" y2="26" stroke="#dddddd" stroke-width="0.8"/>

  <rect x="332" y="20" width="11" height="14" rx="1" fill="#ebebeb"/>
  <line x1="334" y1="24" x2="341" y2="24" stroke="#dddddd" stroke-width="1"/>

  <rect x="350" y="19" width="14" height="15" rx="1" fill="#e5e5e5"/>
  <line x1="357" y1="19" x2="357" y2="34" stroke="#dddddd" stroke-width="1.5"/>

  <rect x="372" y="22" width="12" height="12" rx="1" fill="#ebebeb"/>
  <circle cx="396" cy="27" r="5" fill="#e5e5e5"/>

  <rect x="410" y="18" width="16" height="14" rx="1" fill="#ebebeb"/>
  <text x="418" y="28" fill="#f0f0f0" font-size="7" text-anchor="middle">#</text>

  <rect x="434" y="20" width="12" height="14" rx="1" fill="#e5e5e5"/>
  <line x1="436" y1="24" x2="444" y2="24" stroke="#dddddd" stroke-width="1"/>
  <line x1="436" y1="27" x2="443" y2="27" stroke="#dddddd" stroke-width="1"/>

  <rect x="454" y="19" width="11" height="15" rx="1" fill="#ebebeb"/>

  <!-- Row 2 -->
  <rect x="40" y="42" width="14" height="14" rx="1" fill="#e5e5e5"/>
  <rect x="41" y="43" width="12" height="3" fill="#ebebeb"/>
  <line x1="42" y1="50" x2="52" y2="50" stroke="#dddddd" stroke-width="0.8"/>
  <line x1="42" y1="52" x2="50" y2="52" stroke="#dddddd" stroke-width="0.8"/>

  <circle cx="68" cy="50" r="6" fill="#ebebeb"/>
  <rect x="82" y="43" width="12" height="14" rx="1" fill="#e5e5e5"/>
  <line x1="84" y1="47" x2="92" y2="47" stroke="#dddddd" stroke-width="1"/>
  <line x1="84" y1="50" x2="91" y2="50" stroke="#dddddd" stroke-width="1"/>

  <rect x="102" y="44" width="16" height="14" rx="1" fill="#ebebeb"/>
  <text x="110" y="54" fill="#f0f0f0" font-size="7" text-anchor="middle">&lt;/&gt;</text>

  <rect x="126" y="42" width="14" height="15" rx="1" fill="#e5e5e5"/>
  <line x1="133" y1="42" x2="133" y2="57" stroke="#dddddd" stroke-width="1.5"/>

  <rect x="148" y="44" width="11" height="13" rx="1" fill="#ebebeb"/>
  <circle cx="172" cy="51" r="5" fill="#e5e5e5"/>

  <rect x="184" y="42" width="12" height="16" rx="1" fill="#ebebeb"/>
  <line x1="187" y1="47" x2="193" y2="47" stroke="#dddddd" stroke-width="1"/>
  <line x1="187" y1="50" x2="193" y2="50" stroke="#dddddd" stroke-width="1"/>

  <rect x="204" y="44" width="16" height="14" rx="1" fill="#e5e5e5"/>
  <text x="212" y="54" fill="#ebebeb" font-size="7" text-anchor="middle">01</text>

  <rect x="228" y="43" width="14" height="14" rx="1" fill="#ebebeb"/>
  <rect x="229" y="44" width="12" height="3" fill="#f0f0f0"/>

  <circle cx="256" cy="50" r="6" fill="#e5e5e5"/>
  <rect x="270" y="42" width="12" height="15" rx="1" fill="#ebebeb"/>
  <line x1="276" y1="42" x2="276" y2="57" stroke="#dddddd" stroke-width="1"/>

  <rect x="290" y="44" width="11" height="13" rx="1" fill="#e5e5e5"/>
  <line x1="292" y1="48" x2="299" y2="48" stroke="#dddddd" stroke-width="1"/>

  <rect x="310" y="42" width="16" height="14" rx="1" fill="#ebebeb"/>
  <text x="318" y="52" fill="#f0f0f0" font-size="7" text-anchor="middle">{}</text>

  <rect x="334" y="44" width="12" height="14" rx="1" fill="#e5e5e5"/>
  <circle cx="360" cy="50" r="5" fill="#ebebeb"/>

  <rect x="374" y="43" width="14" height="14" rx="1" fill="#e5e5e5"/>
  <rect x="375" y="44" width="12" height="3" fill="#ebebeb"/>

  <rect x="396" y="42" width="12" height="16" rx="1" fill="#ebebeb"/>
  <line x1="399" y1="47" x2="405" y2="47" stroke="#dddddd" stroke-width="1"/>

  <rect x="416" y="44" width="14" height="15" rx="1" fill="#e5e5e5"/>
  <line x1="423" y1="44" x2="423" y2="59" stroke="#dddddd" stroke-width="1.5"/>

  <circle cx="444" cy="51" r="6" fill="#ebebeb"/>
  <rect x="458" y="43" width="11" height="13" rx="1" fill="#e5e5e5"/>

  <!-- Row 3 (slightly narrower spread, hinting at convergence) -->
  <rect x="55" y="66" width="12" height="14" rx="1" fill="#ebebeb"/>
  <line x1="57" y1="70" x2="65" y2="70" stroke="#dddddd" stroke-width="1"/>
  <circle cx="82" cy="73" r="5" fill="#e5e5e5"/>

  <rect x="96" y="67" width="14" height="14" rx="1" fill="#ebebeb"/>
  <rect x="97" y="68" width="12" height="3" fill="#f0f0f0"/>

  <rect x="118" y="66" width="16" height="14" rx="1" fill="#e5e5e5"/>
  <text x="126" y="76" fill="#ebebeb" font-size="7" text-anchor="middle">&lt;&gt;</text>

  <rect x="142" y="68" width="11" height="13" rx="1" fill="#ebebeb"/>
  <rect x="160" y="66" width="14" height="15" rx="1" fill="#e5e5e5"/>
  <line x1="167" y1="66" x2="167" y2="81" stroke="#dddddd" stroke-width="1"/>

  <circle cx="188" cy="73" r="6" fill="#ebebeb"/>

  <rect x="202" y="67" width="12" height="14" rx="1" fill="#e5e5e5"/>
  <line x1="204" y1="71" x2="212" y2="71" stroke="#dddddd" stroke-width="1"/>
  <line x1="204" y1="74" x2="211" y2="74" stroke="#dddddd" stroke-width="1"/>

  <rect x="222" y="66" width="16" height="14" rx="1" fill="#ebebeb"/>
  <text x="230" y="76" fill="#f0f0f0" font-size="7" text-anchor="middle">fn</text>

  <rect x="246" y="68" width="12" height="13" rx="1" fill="#e5e5e5"/>
  <circle cx="272" cy="73" r="5" fill="#ebebeb"/>

  <rect x="286" y="67" width="14" height="14" rx="1" fill="#e5e5e5"/>
  <rect x="287" y="68" width="12" height="3" fill="#ebebeb"/>

  <rect x="308" y="66" width="11" height="15" rx="1" fill="#ebebeb"/>

  <rect x="326" y="68" width="16" height="14" rx="1" fill="#e5e5e5"/>
  <text x="334" y="78" fill="#ebebeb" font-size="7" text-anchor="middle">#</text>

  <circle cx="356" cy="73" r="6" fill="#ebebeb"/>
  <rect x="370" y="66" width="12" height="14" rx="1" fill="#e5e5e5"/>
  <rect x="390" y="67" width="14" height="15" rx="1" fill="#ebebeb"/>
  <line x1="397" y1="67" x2="397" y2="82" stroke="#dddddd" stroke-width="1"/>

  <rect x="412" y="68" width="11" height="13" rx="1" fill="#e5e5e5"/>
  <circle cx="438" cy="73" r="5" fill="#ebebeb"/>

  <!-- "Raw data" label -->
  <text x="250" y="105" fill="#888888" font-size="13" text-anchor="middle" font-weight="600" letter-spacing="2">RAW DATA</text>

  <!-- ============================================ -->
  <!-- MIDDLE: Funnel / Compression Shape           -->
  <!-- ============================================ -->

  <!-- Funnel trapezoid -->
  <polygon points="20,120 480,120 330,310 170,310"
           fill="none" stroke="#a1245a" stroke-width="2" stroke-linejoin="round"/>

  <!-- Subtle fill gradient for the funnel -->
  <defs>
    <linearGradient id="funnelGrad" x1="0" y1="0" x2="0" y2="1">
      <stop offset="0%" stop-color="#a1245a" stop-opacity="0.04"/>
      <stop offset="100%" stop-color="#a1245a" stop-opacity="0.15"/>
    </linearGradient>
  </defs>
  <polygon points="20,120 480,120 330,310 170,310" fill="url(#funnelGrad)"/>

  <!-- Compression arrows inside funnel -->
  <line x1="120" y1="150" x2="200" y2="200" stroke="#a1245a" stroke-width="1" opacity="0.3"/>
  <line x1="380" y1="150" x2="300" y2="200" stroke="#a1245a" stroke-width="1" opacity="0.3"/>
  <line x1="150" y1="200" x2="210" y2="250" stroke="#a1245a" stroke-width="1" opacity="0.2"/>
  <line x1="350" y1="200" x2="290" y2="250" stroke="#a1245a" stroke-width="1" opacity="0.2"/>
  <line x1="190" y1="250" x2="220" y2="285" stroke="#a1245a" stroke-width="1" opacity="0.15"/>
  <line x1="310" y1="250" x2="280" y2="285" stroke="#a1245a" stroke-width="1" opacity="0.15"/>

  <!-- Down arrow chevrons -->
  <polyline points="240,170 250,185 260,170" fill="none" stroke="#a1245a" stroke-width="1.5" opacity="0.4"/>
  <polyline points="240,210 250,225 260,210" fill="none" stroke="#a1245a" stroke-width="1.5" opacity="0.35"/>
  <polyline points="240,250 250,265 260,250" fill="none" stroke="#a1245a" stroke-width="1.5" opacity="0.3"/>

  <!-- Vertical label along the funnel (rotated) -->
  <text transform="translate(488,160) rotate(90)" fill="#a1245a" font-size="12" font-weight="500" letter-spacing="1" opacity="0.8">compressione per astrazione</text>

  <!-- ============================================ -->
  <!-- BOTTOM: The Model                            -->
  <!-- ============================================ -->

  <!-- Bottom container outline -->
  <rect x="120" y="320" width="260" height="140" rx="4" fill="none" stroke="#a1245a" stroke-width="1.5" opacity="0.5"/>

  <!-- Label -->
  <text x="250" y="345" fill="#1a1a1a" font-size="12" text-anchor="middle" font-weight="600" letter-spacing="1.5" opacity="0.9">IL MODELLO</text>

  <!-- Divider line -->
  <line x1="250" y1="352" x2="250" y2="452" stroke="#a1245a" stroke-width="0.5" opacity="0.3"/>

  <!-- ====== LEFT HALF: Abstract concept network ====== -->

  <!-- Node positions:
       sintassi:      160, 375
       causa-effetto: 200, 400
       temporalita:   145, 420
       analogia:      220, 435
       oggetti:       175, 450
  -->

  <!-- Connections -->
  <line x1="160" y1="375" x2="200" y2="400" stroke="#a1245a" stroke-width="1" opacity="0.5"/>
  <line x1="160" y1="375" x2="145" y2="420" stroke="#a1245a" stroke-width="1" opacity="0.5"/>
  <line x1="200" y1="400" x2="220" y2="435" stroke="#a1245a" stroke-width="1" opacity="0.5"/>
  <line x1="200" y1="400" x2="145" y2="420" stroke="#a1245a" stroke-width="1" opacity="0.5"/>
  <line x1="145" y1="420" x2="175" y2="450" stroke="#a1245a" stroke-width="1" opacity="0.5"/>
  <line x1="220" y1="435" x2="175" y2="450" stroke="#a1245a" stroke-width="1" opacity="0.5"/>
  <line x1="160" y1="375" x2="220" y2="435" stroke="#a1245a" stroke-width="0.7" opacity="0.3"/>
  <line x1="145" y1="420" x2="220" y2="435" stroke="#a1245a" stroke-width="0.7" opacity="0.3"/>

  <!-- Nodes -->
  <circle cx="160" cy="375" r="5" fill="#a1245a" opacity="0.8"/>
  <text x="160" y="369" fill="#a1245a" font-size="8" text-anchor="middle" opacity="0.9">sintassi</text>

  <circle cx="200" cy="400" r="5" fill="#a1245a" opacity="0.8"/>
  <text x="218" y="395" fill="#a1245a" font-size="7.5" text-anchor="start" opacity="0.9">causa-</text>
  <text x="218" y="403" fill="#a1245a" font-size="7.5" text-anchor="start" opacity="0.9">effetto</text>

  <circle cx="145" cy="420" r="5" fill="#a1245a" opacity="0.8"/>
  <text x="128" y="416" fill="#a1245a" font-size="8" text-anchor="end" opacity="0.9">temporalita</text>

  <circle cx="220" cy="435" r="5" fill="#a1245a" opacity="0.8"/>
  <text x="236" y="438" fill="#a1245a" font-size="8" text-anchor="start" opacity="0.9">analogia</text>

  <circle cx="175" cy="450" r="5" fill="#a1245a" opacity="0.8"/>
  <text x="175" y="463" fill="#a1245a" font-size="8" text-anchor="middle" opacity="0.9">oggetti</text>

  <!-- ====== RIGHT HALF: Blurry/compressed image mosaic ====== -->

  <!-- Mosaic area: a ~60x60 grid of small rects simulating JPEG artifacts -->
  <g transform="translate(275, 370)">
    <!-- Row 1 -->
    <rect x="0"  y="0"  width="8" height="8" fill="#d8b8b8" opacity="0.6"/>
    <rect x="8"  y="0"  width="8" height="8" fill="#d0d0d0" opacity="0.7"/>
    <rect x="16" y="0"  width="8" height="8" fill="#c0d8d8" opacity="0.5"/>
    <rect x="24" y="0"  width="8" height="8" fill="#d8c8b8" opacity="0.6"/>
    <rect x="32" y="0"  width="8" height="8" fill="#c8c8d8" opacity="0.4"/>
    <rect x="40" y="0"  width="8" height="8" fill="#c0c8e0" opacity="0.5"/>
    <rect x="48" y="0"  width="8" height="8" fill="#d8d8c8" opacity="0.6"/>
    <rect x="56" y="0"  width="8" height="8" fill="#c8b8d8" opacity="0.5"/>
    <!-- Row 2 -->
    <rect x="0"  y="8"  width="8" height="8" fill="#c8d8d8" opacity="0.5"/>
    <rect x="8"  y="8"  width="8" height="8" fill="#e8d8c8" opacity="0.7"/>
    <rect x="16" y="8"  width="8" height="8" fill="#d8e8d8" opacity="0.8"/>
    <rect x="24" y="8"  width="8" height="8" fill="#d0d0d0" opacity="0.6"/>
    <rect x="32" y="8"  width="8" height="8" fill="#e8c8d8" opacity="0.7"/>
    <rect x="40" y="8"  width="8" height="8" fill="#d8d8e8" opacity="0.5"/>
    <rect x="48" y="8"  width="8" height="8" fill="#c8e8d8" opacity="0.6"/>
    <rect x="56" y="8"  width="8" height="8" fill="#d8c8e8" opacity="0.7"/>
    <!-- Row 3 -->
    <rect x="0"  y="16" width="8" height="8" fill="#c0e0d8" opacity="0.6"/>
    <rect x="8"  y="16" width="8" height="8" fill="#d8d8b8" opacity="0.5"/>
    <rect x="16" y="16" width="8" height="8" fill="#e8d8e8" opacity="0.9"/>
    <rect x="24" y="16" width="8" height="8" fill="#d8e8e8" opacity="0.8"/>
    <rect x="32" y="16" width="8" height="8" fill="#e8e8d8" opacity="0.7"/>
    <rect x="40" y="16" width="8" height="8" fill="#d8c8d8" opacity="0.6"/>
    <rect x="48" y="16" width="8" height="8" fill="#c8d8c8" opacity="0.5"/>
    <rect x="56" y="16" width="8" height="8" fill="#e8d8d8" opacity="0.7"/>
    <!-- Row 4 -->
    <rect x="0"  y="24" width="8" height="8" fill="#d8d8d8" opacity="0.5"/>
    <rect x="8"  y="24" width="8" height="8" fill="#c8e8e8" opacity="0.7"/>
    <rect x="16" y="24" width="8" height="8" fill="#e8d8c8" opacity="0.8"/>
    <rect x="24" y="24" width="8" height="8" fill="#d8d8e8" opacity="0.9"/>
    <rect x="32" y="24" width="8" height="8" fill="#e0e0e0" opacity="0.8"/>
    <rect x="40" y="24" width="8" height="8" fill="#d8e8c8" opacity="0.7"/>
    <rect x="48" y="24" width="8" height="8" fill="#d0d0d0" opacity="0.6"/>
    <rect x="56" y="24" width="8" height="8" fill="#d8e8d8" opacity="0.5"/>
    <!-- Row 5 -->
    <rect x="0"  y="32" width="8" height="8" fill="#e5e5e5" opacity="0.6"/>
    <rect x="8"  y="32" width="8" height="8" fill="#d8e8d8" opacity="0.5"/>
    <rect x="16" y="32" width="8" height="8" fill="#e8c8e8" opacity="0.7"/>
    <rect x="24" y="32" width="8" height="8" fill="#d8d8c8" opacity="0.6"/>
    <rect x="32" y="32" width="8" height="8" fill="#c8e8d8" opacity="0.8"/>
    <rect x="40" y="32" width="8" height="8" fill="#e8d8e8" opacity="0.7"/>
    <rect x="48" y="32" width="8" height="8" fill="#d8d8d8" opacity="0.5"/>
    <rect x="56" y="32" width="8" height="8" fill="#c8c8d8" opacity="0.6"/>
    <!-- Row 6 -->
    <rect x="0"  y="40" width="8" height="8" fill="#d8c8d8" opacity="0.5"/>
    <rect x="8"  y="40" width="8" height="8" fill="#c8d8d8" opacity="0.6"/>
    <rect x="16" y="40" width="8" height="8" fill="#d8e8c8" opacity="0.7"/>
    <rect x="24" y="40" width="8" height="8" fill="#e8d8d8" opacity="0.6"/>
    <rect x="32" y="40" width="8" height="8" fill="#d8c8e8" opacity="0.5"/>
    <rect x="40" y="40" width="8" height="8" fill="#c8e8e8" opacity="0.7"/>
    <rect x="48" y="40" width="8" height="8" fill="#e8c8c8" opacity="0.6"/>
    <rect x="56" y="40" width="8" height="8" fill="#d8d8e8" opacity="0.5"/>
    <!-- Row 7 -->
    <rect x="0"  y="48" width="8" height="8" fill="#c8d8c8" opacity="0.6"/>
    <rect x="8"  y="48" width="8" height="8" fill="#e8c8d8" opacity="0.5"/>
    <rect x="16" y="48" width="8" height="8" fill="#d8d8d8" opacity="0.4"/>
    <rect x="24" y="48" width="8" height="8" fill="#c8e8c8" opacity="0.6"/>
    <rect x="32" y="48" width="8" height="8" fill="#e8d8c8" opacity="0.5"/>
    <rect x="40" y="48" width="8" height="8" fill="#d8c8c8" opacity="0.6"/>
    <rect x="48" y="48" width="8" height="8" fill="#d0d0d0" opacity="0.5"/>
    <rect x="56" y="48" width="8" height="8" fill="#d8e8e8" opacity="0.4"/>
    <!-- Row 8 -->
    <rect x="0"  y="56" width="8" height="8" fill="#d8d8c8" opacity="0.5"/>
    <rect x="8"  y="56" width="8" height="8" fill="#c8c8d8" opacity="0.6"/>
    <rect x="16" y="56" width="8" height="8" fill="#e8e8c8" opacity="0.5"/>
    <rect x="24" y="56" width="8" height="8" fill="#d8c8d8" opacity="0.7"/>
    <rect x="32" y="56" width="8" height="8" fill="#c8d8d8" opacity="0.5"/>
    <rect x="40" y="56" width="8" height="8" fill="#e8d8e8" opacity="0.6"/>
    <rect x="48" y="56" width="8" height="8" fill="#d8e8c8" opacity="0.5"/>
    <rect x="56" y="56" width="8" height="8" fill="#e5e5e5" opacity="0.6"/>
  </g>

  <!-- Outline for the mosaic -->
  <rect x="275" y="370" width="64" height="64" rx="2" fill="none" stroke="#aaaaaa" stroke-width="0.8" opacity="0.5"/>

  <!-- Label below mosaic -->
  <text x="307" y="450" fill="#888888" font-size="8" text-anchor="middle" font-style="italic">riconoscibile,</text>
  <text x="307" y="460" fill="#888888" font-size="8" text-anchor="middle" font-style="italic">non fedele</text>

  <!-- ============================================ -->
  <!-- Bottom annotation                            -->
  <!-- ============================================ -->
  <text x="250" y="490" fill="#1a1a1a" font-size="9" text-anchor="middle" opacity="0.5" letter-spacing="0.5">output qualitativamente diverso dall'input</text>

</svg>